<?xml version="1.0" standalone="no"?>
<!DOCTYPE svg PUBLIC "-//W3C//DTD SVG 20010904//EN"
 "http://www.w3.org/TR/2001/REC-SVG-20010904/DTD/svg10.dtd">
<svg version="1.0" xmlns="http://www.w3.org/2000/svg"
 width="512.000000pt" height="512.000000pt" viewBox="0 0 512.000000 512.000000"
 preserveAspectRatio="xMidYMid meet">
<metadata>
Created by potrace 1.16, written by Peter Selinger 2001-2019
</metadata>
<g transform="translate(0.000000,512.000000) scale(0.100000,-0.100000)"
fill="#FFFFFF" stroke="none">
<path d="M1745 5106 c-125 -41 -237 -132 -289 -234 -64 -125 -72 -279 -23
-402 l25 -60 -721 -2008 c-693 -1931 -721 -2010 -725 -2089 -3 -71 -1 -89 21
-135 31 -68 87 -124 155 -155 46 -22 64 -24 135 -21 77 4 124 19 812 267 499
179 736 268 747 282 41 48 6 129 -56 129 -15 0 -353 -117 -752 -260 -549 -197
-736 -260 -771 -260 -41 0 -50 5 -89 44 -62 61 -60 89 18 308 33 95 62 175 64
176 1 2 22 -9 46 -26 66 -45 138 -79 205 -96 79 -21 237 -21 317 0 206 53 387
235 441 442 21 82 21 232 0 314 -65 252 -317 458 -559 458 -31 0 -56 2 -56 4
0 12 394 1102 400 1110 5 5 21 0 37 -11 98 -70 211 -103 348 -103 180 0 309
54 435 180 126 125 181 258 181 435 0 177 -55 310 -181 436 -105 106 -258 179
-377 179 -24 0 -43 2 -43 4 0 4 21 65 85 244 3 9 15 6 42 -11 21 -13 139 -81
263 -152 124 -70 269 -156 322 -191 112 -74 152 -82 187 -38 23 30 27 71 8 95
-28 36 -355 238 -566 349 -148 78 -201 122 -237 198 -23 47 -28 71 -28 137 -1
68 3 89 27 137 67 137 232 211 375 169 39 -12 218 -106 387 -204 1049 -609
1972 -1574 2517 -2634 76 -147 78 -154 78 -222 0 -134 -61 -236 -177 -293 -88
-43 -179 -45 -265 -6 -81 38 -125 89 -206 242 -385 725 -908 1359 -1541 1865
-85 67 -122 91 -143 91 -41 0 -63 -14 -78 -50 -19 -46 0 -77 93 -147 427 -321
855 -791 1233 -1353 153 -227 414 -665 403 -674 -2 -1 -490 -177 -1084 -389
-766 -274 -1085 -393 -1097 -408 -39 -46 -3 -129 55 -129 13 0 426 144 918
321 492 176 1000 358 1129 405 l235 84 55 -22 c76 -29 230 -30 312 0 126 46
213 125 275 250 33 66 37 82 41 175 6 136 -8 182 -113 378 -565 1051 -1389
1930 -2400 2561 -157 98 -365 215 -490 275 -99 48 -101 48 -210 50 -71 2 -124
-2 -150 -11z m-80 -1296 c93 -44 180 -131 226 -225 33 -68 34 -74 34 -190 0
-114 -2 -123 -32 -188 -66 -139 -214 -249 -357 -265 -128 -15 -266 24 -348 99
l-38 34 135 375 c74 206 137 381 140 389 4 10 24 12 88 9 67 -4 95 -11 152
-38z m-770 -2229 c89 -41 184 -136 228 -228 30 -65 32 -74 32 -188 0 -113 -2
-124 -31 -185 -56 -117 -157 -208 -279 -251 -150 -52 -349 -5 -459 110 l-27
28 135 374 134 374 38 5 c66 9 159 -8 229 -39z"/>
<path d="M2505 3360 c-148 -63 -267 -185 -295 -301 -34 -142 43 -408 132 -458
24 -14 32 -14 84 4 131 45 259 148 309 249 51 104 45 245 -17 394 -35 84 -84
142 -119 142 -13 0 -55 -14 -94 -30z m76 -205 c29 -66 36 -172 15 -217 -22
-46 -78 -103 -135 -136 -42 -25 -44 -25 -57 -7 -20 27 -34 81 -41 151 -6 70 9
111 60 164 32 34 114 90 130 90 4 0 17 -20 28 -45z"/>
<path d="M3057 2583 c-34 -39 -52 -184 -37 -293 32 -223 186 -346 459 -367 75
-5 80 -4 104 19 18 18 27 42 35 101 27 179 6 247 -76 247 -50 0 -71 -34 -74
-120 -3 -69 -5 -75 -26 -78 -38 -6 -147 37 -190 73 -24 21 -48 54 -58 80 -16
44 -25 177 -12 190 3 4 34 -1 68 -9 88 -23 115 -21 139 10 26 33 27 75 4 103
-41 49 -301 83 -336 44z"/>
<path d="M1220 2490 c-62 -62 -114 -235 -108 -355 8 -155 89 -264 260 -350
158 -79 191 -74 243 38 50 105 68 186 63 282 -8 156 -90 265 -263 351 -113 56
-164 65 -195 34z m236 -258 c23 -23 48 -58 54 -78 16 -46 8 -145 -15 -202
l-17 -42 -51 27 c-66 36 -132 104 -147 149 -16 46 -8 145 15 202 l17 42 51
-27 c28 -16 70 -47 93 -71z"/>
<path d="M2265 2301 c-99 -29 -183 -78 -257 -150 -59 -58 -68 -72 -68 -102 0
-45 34 -79 78 -79 25 0 46 13 99 61 113 102 196 133 341 127 82 -4 108 -9 165
-36 91 -42 182 -132 228 -227 33 -68 34 -74 34 -190 0 -116 -1 -122 -34 -190
-113 -231 -384 -331 -608 -224 -147 70 -246 211 -263 373 -10 99 -14 110 -46
125 -36 16 -58 14 -88 -10 -24 -19 -26 -26 -26 -96 0 -261 197 -510 456 -577
80 -21 238 -21 318 0 206 53 387 235 441 442 21 82 21 232 0 314 -54 207 -235
389 -441 442 -84 22 -250 20 -329 -3z"/>
</g>
</svg>
