<?xml version="1.0" standalone="no"?>
<!DOCTYPE svg PUBLIC "-//W3C//DTD SVG 20010904//EN"
 "http://www.w3.org/TR/2001/REC-SVG-20010904/DTD/svg10.dtd">
<svg version="1.0" xmlns="http://www.w3.org/2000/svg"
 width="512.000000pt" height="512.000000pt" viewBox="0 0 512.000000 512.000000"
 preserveAspectRatio="xMidYMid meet">
<metadata>
Created by potrace 1.16, written by Peter Selinger 2001-2019
</metadata>
<g transform="translate(0.000000,512.000000) scale(0.100000,-0.100000)"
fill="#FFFFFF" stroke="none">
<path d="M1242 5100 c-18 -11 -41 -34 -53 -52 -19 -30 -20 -43 -15 -145 8
-145 6 -143 62 -131 49 11 440 6 464 -5 14 -6 18 9 28 104 12 109 12 113 -10
158 -13 25 -38 56 -57 68 -32 22 -44 23 -210 23 -158 0 -179 -2 -209 -20z"/>
<path d="M1208 4664 c-52 -28 -53 -31 -59 -449 l-5 -390 -37 -136 c-43 -162
-98 -305 -218 -568 -176 -381 -241 -639 -256 -1008 l-6 -162 366 -3 c353 -3
367 -4 394 -24 15 -11 38 -36 51 -54 l22 -33 0 -497 0 -497 -22 -33 c-13 -18
-36 -43 -51 -54 -27 -20 -41 -21 -393 -24 l-365 -3 3 -267 c3 -257 4 -269 27
-320 28 -62 99 -129 145 -137 17 -3 319 -5 672 -3 l640 3 35 24 c19 13 47 39
62 59 60 78 58 42 55 1174 -4 1017 -4 1035 -26 1158 -47 261 -103 432 -229
703 -131 283 -193 449 -239 648 -14 61 -18 143 -21 449 -5 408 -6 416 -63 445
-42 22 -442 21 -482 -1z"/>
<path d="M2930 2948 c-54 -15 -87 -54 -141 -163 -167 -344 -185 -676 -49 -950
73 -147 205 -289 340 -366 161 -91 187 -109 223 -155 65 -85 67 -100 67 -544
0 -326 -3 -400 -14 -416 -13 -16 -31 -20 -143 -24 -117 -5 -132 -7 -175 -32
-58 -35 -103 -88 -123 -147 -18 -53 -20 -122 -3 -139 9 -9 169 -12 660 -12
l647 0 12 21 c25 49 -13 171 -73 231 -59 58 -99 72 -234 78 -82 3 -126 9 -138
19 -15 13 -16 51 -14 440 l3 426 25 48 c31 62 92 118 172 158 339 170 535 497
514 859 -6 119 -40 270 -86 386 -41 102 -106 227 -130 249 -48 43 -65 44 -700
44 -367 -1 -619 -5 -640 -11z m1253 -120 c23 -19 92 -163 128 -269 37 -112 59
-222 59 -301 0 -58 -1 -60 -22 -54 -13 4 -59 9 -104 13 -150 11 -329 -31 -618
-147 -67 -26 -166 -63 -221 -81 -92 -30 -110 -33 -230 -34 -129 0 -130 0 -206
36 -48 23 -99 59 -140 97 l-64 60 1 94 c1 146 51 332 131 493 59 117 -20 105
668 105 465 0 605 -3 618 -12z"/>
<path d="M630 1340 l0 -510 354 0 355 0 15 22 c14 20 16 83 16 488 0 405 -2
468 -16 488 l-15 22 -355 0 -354 0 0 -510z"/>
</g>
</svg>
